<svg width="310" height="72" viewBox="0 0 310 72" fill="none" xmlns="http://www.w3.org/2000/svg">
<path d="M37.3151 28.7848L74.6301 -1.21859e-06L111.944 28.7848L74.6301 57.5701L37.3151 28.7848" fill="white"/>
<path d="M0 28.7849L37.3151 0.000181887L74.6301 28.7849L37.3151 57.5703L0 28.7849" fill="#3B557D"/>
<path d="M132.537 51.9934H127.735L123.073 44.0334V51.9934H118.808V36.2883H123.073V43.8938L127.563 36.2883H132.225L127.381 43.7864L132.537 51.9934ZM148.844 44.1194C148.844 46.7619 148.195 48.7707 146.899 50.1457C145.603 51.5207 143.705 52.2082 141.206 52.2082C138.742 52.2082 136.852 51.5172 135.534 50.135C134.223 48.7528 133.568 46.7405 133.568 44.0979C133.568 41.484 134.22 39.4895 135.523 38.1145C136.834 36.7323 138.735 36.0412 141.227 36.0412C143.727 36.0412 145.621 36.7252 146.91 38.093C148.199 39.4608 148.844 41.4696 148.844 44.1194ZM138.037 44.1194C138.037 47.1558 139.093 48.6741 141.206 48.6741C142.28 48.6741 143.075 48.3052 143.591 47.5676C144.113 46.83 144.375 45.6806 144.375 44.1194C144.375 42.551 144.11 41.3944 143.58 40.6496C143.057 39.8977 142.273 39.5217 141.227 39.5217C139.1 39.5217 138.037 41.0543 138.037 44.1194ZM165.139 51.9934H160.875V45.591H155.944V51.9934H151.679V36.2883H155.944V42.1106H160.875V36.2883H165.139V51.9934ZM175.538 39.5432C174.528 39.5432 173.74 39.9586 173.175 40.7893C172.609 41.6129 172.326 42.7515 172.326 44.2053C172.326 47.2274 173.475 48.7385 175.774 48.7385C176.469 48.7385 177.142 48.6418 177.794 48.4485C178.445 48.2551 179.101 48.0224 179.76 47.7502V51.3381C178.449 51.9182 176.967 52.2082 175.312 52.2082C172.942 52.2082 171.123 51.5207 169.855 50.1457C168.595 48.7707 167.965 46.7834 167.965 44.1838C167.965 42.5582 168.269 41.1295 168.878 39.8977C169.494 38.6659 170.374 37.7206 171.52 37.0618C172.673 36.3957 174.027 36.0627 175.581 36.0627C177.278 36.0627 178.9 36.4315 180.447 37.1692L179.147 40.51C178.567 40.2379 177.987 40.0087 177.407 39.8225C176.827 39.6363 176.204 39.5432 175.538 39.5432ZM189.76 51.9934H185.517V39.758H181.682V36.2883H193.585V39.758H189.76V51.9934ZM205.466 51.9934L204.692 49.05H199.59L198.795 51.9934H194.133L199.257 36.2239H204.918L210.106 51.9934H205.466ZM203.811 45.5696L203.135 42.9914C202.977 42.4185 202.784 41.6773 202.554 40.7678C202.332 39.8583 202.186 39.2066 202.114 38.8127C202.05 39.178 201.921 39.7795 201.727 40.6174C201.541 41.4553 201.122 43.106 200.47 45.5696H203.811ZM225.274 51.9934H221.01V45.591H216.079V51.9934H211.814V36.2883H216.079V42.1106H221.01V36.2883H225.274V51.9934ZM235.608 51.9934H231.365V39.758H227.53V36.2883H239.432V39.758H235.608V51.9934ZM241.677 36.2883H245.459V43.0344C245.459 43.7506 245.401 45.1828 245.287 47.3313H245.373L251.635 36.2883H256.878V51.9934H253.118V45.4192C253.118 44.4237 253.182 42.9341 253.311 40.9504H253.225L246.909 51.9934H241.677V36.2883ZM273.743 51.9934H269.478V45.591H264.548V51.9934H260.283V36.2883H264.548V42.1106H269.478V36.2883H273.743V51.9934ZM291.844 44.1194C291.844 46.7619 291.195 48.7707 289.899 50.1457C288.603 51.5207 286.705 52.2082 284.206 52.2082C281.742 52.2082 279.852 51.5172 278.534 50.135C277.223 48.7528 276.568 46.7405 276.568 44.0979C276.568 41.484 277.22 39.4895 278.523 38.1145C279.834 36.7323 281.735 36.0412 284.227 36.0412C286.727 36.0412 288.621 36.7252 289.91 38.093C291.199 39.4608 291.844 41.4696 291.844 44.1194ZM281.037 44.1194C281.037 47.1558 282.093 48.6741 284.206 48.6741C285.28 48.6741 286.075 48.3052 286.591 47.5676C287.113 46.83 287.375 45.6806 287.375 44.1194C287.375 42.551 287.11 41.3944 286.58 40.6496C286.057 39.8977 285.273 39.5217 284.227 39.5217C282.1 39.5217 281.037 41.0543 281.037 44.1194ZM294.679 36.2883H300.158C302.292 36.2883 303.875 36.607 304.906 37.2444C305.944 37.8746 306.464 38.8593 306.464 40.1985C306.464 41.0793 306.238 41.8313 305.787 42.4543C305.336 43.0774 304.741 43.4784 304.004 43.6575V43.7649C304.978 44.0227 305.683 44.4524 306.12 45.0539C306.557 45.6555 306.775 46.4361 306.775 47.3957C306.775 48.8209 306.238 49.9452 305.164 50.7688C304.097 51.5852 302.639 51.9934 300.792 51.9934H294.679V36.2883ZM298.923 42.3147H300.201C300.81 42.3147 301.279 42.1894 301.608 41.9387C301.945 41.6881 302.113 41.3157 302.113 40.8215C302.113 39.9407 301.447 39.5002 300.115 39.5002H298.923V42.3147ZM298.923 45.4192V48.717H300.416C301.741 48.717 302.403 48.1584 302.403 47.0412C302.403 46.5185 302.224 46.1174 301.866 45.8381C301.515 45.5588 301.003 45.4192 300.33 45.4192H298.923Z" fill="#3B557D"/>
</svg>
